# xmcd
#
# Track frame offsets: 
#        150
#        12808
#        24851
#        34271
#        41861
#        52694
#        64449
#        76196
#
# Disc length: 1147 seconds
#
# Revision: 1
# Processed by: cddbd v1.5.2PL0 Copyright (c) Steve Scherf et al.
# Submitted via: ExactAudioCopy v0.95b4
#
DISCID=58047908
DTITLE=Dolly Parton - Honky Tonk Angel
DYEAR=2000
DGENRE=Country
TTITLE0=Little Blossom
TTITLE1=Two Little Orphans
TTITLE2=Girl Left Alone
TTITLE3=Puppy Love
TTITLE4=Honky Tonk Angels
TTITLE5=Making Believe
TTITLE6=Letter To Heaven
TTITLE7=Release Me
EXTD=
EXTT0=
EXTT1=
EXTT2=
EXTT3=
EXTT4=
EXTT5=
EXTT6=
EXTT7=
PLAYORDER=
